<svg width="50" height="50" viewBox="0 0 50 50" fill="none" xmlns="http://www.w3.org/2000/svg">
<path d="M20.5443 31.708C19.9683 31.708 19.4883 31.26 19.4883 30.604C19.4883 29.932 19.9683 29.468 20.5443 29.468C21.1203 29.468 21.6003 29.932 21.6003 30.604C21.6003 31.26 21.1203 31.708 20.5443 31.708ZM24.9974 31.708C24.4214 31.708 23.9414 31.26 23.9414 30.604C23.9414 29.932 24.4214 29.468 24.9974 29.468C25.5734 29.468 26.0534 29.932 26.0534 30.604C26.0534 31.26 25.5734 31.708 24.9974 31.708ZM29.4506 31.708C28.8746 31.708 28.3946 31.26 28.3946 30.604C28.3946 29.932 28.8746 29.468 29.4506 29.468C30.0266 29.468 30.5066 29.932 30.5066 30.604C30.5066 31.26 30.0266 31.708 29.4506 31.708Z" fill="white"/>
<path d="M50 50V38L38 50H50Z" fill="white"/>
</svg>
